<mxfile host="app.diagrams.net" modified="2020-11-10T10:22:00.244Z" agent="5.0 (Macintosh; Intel Mac OS X 10_15_7) AppleWebKit/537.36 (KHTML, like Gecko) Chrome/86.0.4240.183 Safari/537.36" etag="xUm2Rlc0nFGFtf484UwC" version="13.9.2" type="github">
  <diagram id="tyr-MQTiIqNZeqa0KlWk" name="Page-1">
    <mxGraphModel dx="1426" dy="725" grid="1" gridSize="10" guides="1" tooltips="1" connect="1" arrows="1" fold="1" page="1" pageScale="1" pageWidth="827" pageHeight="1169" math="0" shadow="0">
      <root>
        <mxCell id="0" />
        <mxCell id="1" parent="0" />
        <mxCell id="piVHgp8cClq6i6xGYqzu-85" value="" style="rounded=0;whiteSpace=wrap;html=1;fillColor=#f5f5f5;strokeColor=#666666;fontColor=#333333;" vertex="1" parent="1">
          <mxGeometry x="90" y="140" width="140" height="490" as="geometry" />
        </mxCell>
        <mxCell id="piVHgp8cClq6i6xGYqzu-84" value="" style="rounded=0;whiteSpace=wrap;html=1;fillColor=#fff2cc;strokeColor=#d6b656;" vertex="1" parent="1">
          <mxGeometry x="404" y="140" width="286" height="490" as="geometry" />
        </mxCell>
        <mxCell id="piVHgp8cClq6i6xGYqzu-83" value="" style="rounded=0;whiteSpace=wrap;html=1;fillColor=#dae8fc;strokeColor=#6c8ebf;" vertex="1" parent="1">
          <mxGeometry x="260" y="140" width="140" height="490" as="geometry" />
        </mxCell>
        <mxCell id="piVHgp8cClq6i6xGYqzu-52" value="数据应用层" style="rounded=0;whiteSpace=wrap;html=1;" vertex="1" parent="1">
          <mxGeometry x="100" y="210" width="120" height="60" as="geometry" />
        </mxCell>
        <mxCell id="piVHgp8cClq6i6xGYqzu-53" value="数据服务层" style="rounded=0;whiteSpace=wrap;html=1;" vertex="1" parent="1">
          <mxGeometry x="100" y="290" width="120" height="60" as="geometry" />
        </mxCell>
        <mxCell id="piVHgp8cClq6i6xGYqzu-54" value="数据计算层" style="rounded=0;whiteSpace=wrap;html=1;" vertex="1" parent="1">
          <mxGeometry x="100" y="370" width="120" height="60" as="geometry" />
        </mxCell>
        <mxCell id="piVHgp8cClq6i6xGYqzu-55" value="数据采集层" style="rounded=0;whiteSpace=wrap;html=1;" vertex="1" parent="1">
          <mxGeometry x="100" y="450" width="120" height="60" as="geometry" />
        </mxCell>
        <mxCell id="piVHgp8cClq6i6xGYqzu-56" value="Amazon财务接口" style="rounded=0;whiteSpace=wrap;html=1;" vertex="1" parent="1">
          <mxGeometry x="270" y="450" width="120" height="60" as="geometry" />
        </mxCell>
        <mxCell id="piVHgp8cClq6i6xGYqzu-58" value="数据统计" style="rounded=0;whiteSpace=wrap;html=1;" vertex="1" parent="1">
          <mxGeometry x="270" y="370" width="120" height="60" as="geometry" />
        </mxCell>
        <mxCell id="piVHgp8cClq6i6xGYqzu-59" value="数据支撑" style="rounded=0;whiteSpace=wrap;html=1;" vertex="1" parent="1">
          <mxGeometry x="270" y="290" width="120" height="60" as="geometry" />
        </mxCell>
        <mxCell id="piVHgp8cClq6i6xGYqzu-61" value="报表中心" style="rounded=0;whiteSpace=wrap;html=1;" vertex="1" parent="1">
          <mxGeometry x="270" y="210" width="120" height="60" as="geometry" />
        </mxCell>
        <mxCell id="piVHgp8cClq6i6xGYqzu-65" value="" style="endArrow=none;dashed=1;html=1;exitX=1;exitY=0.5;exitDx=0;exitDy=0;" edge="1" parent="1" source="piVHgp8cClq6i6xGYqzu-52">
          <mxGeometry width="50" height="50" relative="1" as="geometry">
            <mxPoint x="220" y="290" as="sourcePoint" />
            <mxPoint x="270" y="240" as="targetPoint" />
          </mxGeometry>
        </mxCell>
        <mxCell id="piVHgp8cClq6i6xGYqzu-66" value="" style="endArrow=none;dashed=1;html=1;exitX=1;exitY=0.5;exitDx=0;exitDy=0;entryX=0;entryY=0.5;entryDx=0;entryDy=0;" edge="1" parent="1" source="piVHgp8cClq6i6xGYqzu-53" target="piVHgp8cClq6i6xGYqzu-59">
          <mxGeometry width="50" height="50" relative="1" as="geometry">
            <mxPoint x="230" y="250" as="sourcePoint" />
            <mxPoint x="280" y="250" as="targetPoint" />
          </mxGeometry>
        </mxCell>
        <mxCell id="piVHgp8cClq6i6xGYqzu-67" value="" style="endArrow=none;dashed=1;html=1;exitX=1;exitY=0.5;exitDx=0;exitDy=0;" edge="1" parent="1" source="piVHgp8cClq6i6xGYqzu-54">
          <mxGeometry width="50" height="50" relative="1" as="geometry">
            <mxPoint x="220" y="450" as="sourcePoint" />
            <mxPoint x="270" y="400" as="targetPoint" />
          </mxGeometry>
        </mxCell>
        <mxCell id="piVHgp8cClq6i6xGYqzu-68" value="" style="endArrow=none;dashed=1;html=1;exitX=1;exitY=0.5;exitDx=0;exitDy=0;" edge="1" parent="1" source="piVHgp8cClq6i6xGYqzu-55">
          <mxGeometry width="50" height="50" relative="1" as="geometry">
            <mxPoint x="220" y="530" as="sourcePoint" />
            <mxPoint x="270" y="480" as="targetPoint" />
          </mxGeometry>
        </mxCell>
        <mxCell id="piVHgp8cClq6i6xGYqzu-70" value="财务报表" style="text;html=1;strokeColor=none;fillColor=none;align=center;verticalAlign=middle;whiteSpace=wrap;rounded=0;" vertex="1" parent="1">
          <mxGeometry x="295" y="160" width="70" height="20" as="geometry" />
        </mxCell>
        <mxCell id="piVHgp8cClq6i6xGYqzu-71" value="Amazon订单接口" style="rounded=0;whiteSpace=wrap;html=1;" vertex="1" parent="1">
          <mxGeometry x="480" y="450" width="120" height="60" as="geometry" />
        </mxCell>
        <mxCell id="piVHgp8cClq6i6xGYqzu-72" value="数据统计" style="rounded=0;whiteSpace=wrap;html=1;" vertex="1" parent="1">
          <mxGeometry x="414" y="370" width="120" height="60" as="geometry" />
        </mxCell>
        <mxCell id="piVHgp8cClq6i6xGYqzu-73" value="数据支撑" style="rounded=0;whiteSpace=wrap;html=1;" vertex="1" parent="1">
          <mxGeometry x="414" y="290" width="120" height="60" as="geometry" />
        </mxCell>
        <mxCell id="piVHgp8cClq6i6xGYqzu-74" value="报表中心" style="rounded=0;whiteSpace=wrap;html=1;" vertex="1" parent="1">
          <mxGeometry x="414" y="210" width="120" height="60" as="geometry" />
        </mxCell>
        <mxCell id="piVHgp8cClq6i6xGYqzu-75" value="订单管理" style="text;html=1;strokeColor=none;fillColor=none;align=center;verticalAlign=middle;whiteSpace=wrap;rounded=0;" vertex="1" parent="1">
          <mxGeometry x="505" y="160" width="70" height="20" as="geometry" />
        </mxCell>
        <mxCell id="piVHgp8cClq6i6xGYqzu-76" value="操作数据" style="rounded=0;whiteSpace=wrap;html=1;" vertex="1" parent="1">
          <mxGeometry x="550" y="370" width="120" height="60" as="geometry" />
        </mxCell>
        <mxCell id="piVHgp8cClq6i6xGYqzu-77" value="数据存储层" style="rounded=0;whiteSpace=wrap;html=1;" vertex="1" parent="1">
          <mxGeometry x="100" y="540" width="120" height="60" as="geometry" />
        </mxCell>
        <mxCell id="piVHgp8cClq6i6xGYqzu-78" value="元数据&lt;br&gt;报表数据" style="rounded=0;whiteSpace=wrap;html=1;" vertex="1" parent="1">
          <mxGeometry x="270" y="540" width="120" height="60" as="geometry" />
        </mxCell>
        <mxCell id="piVHgp8cClq6i6xGYqzu-79" value="订单元数据&lt;br&gt;报表数据" style="rounded=0;whiteSpace=wrap;html=1;" vertex="1" parent="1">
          <mxGeometry x="414" y="540" width="120" height="60" as="geometry" />
        </mxCell>
        <mxCell id="piVHgp8cClq6i6xGYqzu-80" value="订单操作数据&lt;br&gt;关联关系数据" style="rounded=0;whiteSpace=wrap;html=1;" vertex="1" parent="1">
          <mxGeometry x="550" y="540" width="120" height="60" as="geometry" />
        </mxCell>
        <mxCell id="piVHgp8cClq6i6xGYqzu-81" value="数据操作" style="rounded=0;whiteSpace=wrap;html=1;" vertex="1" parent="1">
          <mxGeometry x="550" y="290" width="120" height="60" as="geometry" />
        </mxCell>
        <mxCell id="piVHgp8cClq6i6xGYqzu-82" value="订单管理" style="rounded=0;whiteSpace=wrap;html=1;" vertex="1" parent="1">
          <mxGeometry x="550" y="210" width="120" height="60" as="geometry" />
        </mxCell>
        <mxCell id="piVHgp8cClq6i6xGYqzu-86" value="数据分层" style="text;html=1;strokeColor=none;fillColor=none;align=center;verticalAlign=middle;whiteSpace=wrap;rounded=0;" vertex="1" parent="1">
          <mxGeometry x="125" y="160" width="70" height="20" as="geometry" />
        </mxCell>
      </root>
    </mxGraphModel>
  </diagram>
</mxfile>
